# xmcd
#
# Track frame offsets: 
#        150
#        11588
#        23274
#        35403
#        46215
#        61115
#        73842
#        83901
#        94349
#        106844
#        118703
#        130079
#        141215
#        152912
#        164549
#        175581
#        186817
#        198291
#
# Disc length: 2756 seconds
#
# Revision: 0
# Processed by: cddbd v1.5.2PL0 Copyright (c) Steve Scherf et al.
# Submitted via: ExactAudioCopy v1.3
#
DISCID=e70ac212
DTITLE=Bobby 'Blue' Bland - The Duke Years 1952-1962 [Disc 2]
DYEAR=2014
DGENRE=Blues, Soul Blues
TTITLE0=Ain't That Loving You
TTITLE1=Yield Not to Temptation
TTITLE2=Cry, Cry, Cry
TTITLE3=I'll Take Care of You
TTITLE4=Lovin' Blues
TTITLE5=Time Out
TTITLE6=Blue Moon
TTITLE7=I've Been Wrong So Long
TTITLE8=I Learned My Lesson
TTITLE9=I Don’t Believe
TTITLE10=I Smell Trouble
TTITLE11=You Got Me (Where You Want Me)
TTITLE12=I Lost Sight on the World
TTITLE13=Wishing Well
TTITLE14=Is It Real
TTITLE15=Your Friends
TTITLE16=I've Just Got to Forget You
TTITLE17=That's Why
EXTD=
EXTT0=
EXTT1=
EXTT2=
EXTT3=
EXTT4=
EXTT5=
EXTT6=
EXTT7=
EXTT8=
EXTT9=
EXTT10=
EXTT11=
EXTT12=
EXTT13=
EXTT14=
EXTT15=
EXTT16=
EXTT17=
PLAYORDER=
